inDegrees=no
num_controls=7
num_derivatives=13
num_iterations=166
num_multipliers=7
num_parameters=0
num_slacks=7
num_states=26
objective=5.643963
objective_accelerations=0.882393
objective_balance=0.021306
objective_effort=0.197996
objective_height=4.424489
objective_ligament=0.117779
solver_duration=1882.634353
status=Solve_Succeeded
success=true
DataType=double
version=3
OpenSimVersion=4.4-2022-07-23-0e9fedc
endheader
time	/jointset/ground_pelvis/pelvis_tilt/value	/jointset/ground_pelvis/pelvis_tx/value	/jointset/ground_pelvis/pelvis_ty/value	/jointset/hip_l/hip_flexion_l/value	/jointset/hip_l/hip_adduction_l/value	/jointset/hip_l/hip_rotation_l/value	/jointset/back/lumbar_extension/value	/jointset/patellofemoral_l/patellar_flexion_l/value	/jointset/knee_l/knee_flexion_l/value	/jointset/knee_l/knee_adduction_l/value	/jointset/knee_l/knee_rotation_l/value	/jointset/ankle_l/ankle_angle_l/value	/jointset/subtalar_l/subtalar_angle_l/value	/jointset/ground_pelvis/pelvis_tilt/speed	/jointset/ground_pelvis/pelvis_tx/speed	/jointset/ground_pelvis/pelvis_ty/speed	/jointset/hip_l/hip_flexion_l/speed	/jointset/hip_l/hip_adduction_l/speed	/jointset/hip_l/hip_rotation_l/speed	/jointset/back/lumbar_extension/speed	/jointset/patellofemoral_l/patellar_flexion_l/speed	/jointset/knee_l/knee_flexion_l/speed	/jointset/knee_l/knee_adduction_l/speed	/jointset/knee_l/knee_rotation_l/speed	/jointset/ankle_l/ankle_angle_l/speed	/jointset/subtalar_l/subtalar_angle_l/speed	/forceset/tau_hip_flexion_l	/forceset/tau_hip_adduction_l	/forceset/tau_hip_rotation_l	/forceset/tau_knee_flexion_l	/forceset/tau_ankle_angle_l	/forceset/tau_subtalar_angle_l	/forceset/tau_lumbar_extension	lambda_cid13_p0	lambda_cid13_p1	lambda_cid13_p2	lambda_cid13_p3	lambda_cid13_p4	lambda_cid13_p5	lambda_cid14_p0	/jointset/ground_pelvis/pelvis_tilt/accel	/jointset/ground_pelvis/pelvis_tx/accel	/jointset/ground_pelvis/pelvis_ty/accel	/jointset/hip_l/hip_flexion_l/accel	/jointset/hip_l/hip_adduction_l/accel	/jointset/hip_l/hip_rotation_l/accel	/jointset/back/lumbar_extension/accel	/jointset/patellofemoral_l/patellar_flexion_l/accel	/jointset/knee_l/knee_flexion_l/accel	/jointset/knee_l/knee_adduction_l/accel	/jointset/knee_l/knee_rotation_l/accel	/jointset/ankle_l/ankle_angle_l/accel	/jointset/subtalar_l/subtalar_angle_l/accel	gamma_cid13_p0	gamma_cid13_p1	gamma_cid13_p2	gamma_cid13_p3	gamma_cid13_p4	gamma_cid13_p5	gamma_cid14_p0
0.5	-0.2372702661118127	0.01764467772494484	0.7510089100687453	1.084896957762098	-0.3552421411897496	0.00374198553140504	-0.405251670522883	1.035257642946911	1.035257642947047	0.0001702788509554089	-0.174532175923317	0.3237290440739081	0.179177888761113	-0.8102420464997314	-0.180091365651275	-0.6157295840495945	2.642102872855693	0.03109699804668308	0.576855072083838	-0.2949076621339014	2.190690211661459	2.190690211661584	0.3187117779267692	0.0001047353947628949	0.5334555305599149	0.2780038915081351	-0.1078790622566176	0.01572868314159842	-0.004340764736648552	-0.2172237232947666	0.01732730668778917	0.0268225668734653	0.1191797231867111	-17.55417317475651	-7.062513439493298	-0.8831695602729158	-4.622977089452061	-437.2205570171178	-76.38381763760582	-2.655461404626128	0.4369377254849526	0.5633116195688375	-0.5256224000049129	-1.365682018191686	0.1511250469554528	-0.5529544189814318	1.534360638907007	-1.769905679602671	-1.769905679602653	-0.3364587654876848	0.08021303922799922	-0.9812359542469858	0.1040370341586736	-1.167389036793453e-07	-3.934973673539929e-06	1.466743085093054e-07	-5.286287652939282e-07	-3.866453528281025e-07	-2.274670873767943e-06	-3.597199105564426e-07
0.51	-0.2453487554941527	0.01587214169063463	0.7448268730478269	1.111244887982115	-0.3549250289804963	0.009478495253479135	-0.4081249523489106	1.057072355616848	1.057072355616162	0.003341158685364566	-0.1745317813734802	0.3290132309980703	0.1819605501782143	-0.8053380158296939	-0.1743993919199852	-0.6205349790948053	2.627134669116598	0.03231998579467118	0.5704237375991491	-0.2797388625858939	2.171950952191174	2.171950952191283	0.31544566439769	-1.462743238637849e-05	0.523298748202907	0.2784706272179325	-0.1130725311307716	0.01556642094877519	-0.004568541380049679	-0.2202308421856977	0.01522255587708134	0.0276337700238155	0.1231120366944928	-18.3854628135919	-7.22877936596184	-0.9029072274926808	-4.347249579655089	-441.1197276087733	-77.38544375270878	-2.162375228242278	0.5347757935013239	0.5744803723057887	-0.4366328179142168	-1.614694637597464	0.1074425827563538	-0.6920578849910174	1.50961568564738	-1.971077041000952	-1.97107704100344	-0.3250929254561883	-0.05656607802529223	-1.045567371808409	0.01008601815919265	-7.151015273013481e-08	-4.182343432452896e-06	-5.043639693115351e-07	-6.064068216558282e-07	-2.861617245107858e-07	-2.40816037216237e-06	-2.989376065232461e-07
0.52	-0.2533746765586443	0.01415699341811671	0.738601055124229	1.137432675147576	-0.3545957755049548	0.01514992464634738	-0.4108462509648777	1.078690647500027	1.078690647498526	0.006478696328735479	-0.1745322914787741	0.3341933164995858	0.1847462977881674	-0.7997283829301254	-0.1686138132928188	-0.6244857645854315	2.610074261944344	0.03352525130409782	0.563839006243321	-0.2645110201218959	2.151406054310508	2.1514060543106	0.3120433397150838	-7.619563308980786e-05	0.5126352460306679	0.2786211300784861	-0.1182660000049111	0.01540415875593647	-0.004796318023203384	-0.2232379610766237	0.01311780506636548	0.02844497317413618	0.1270443502022905	-19.21125210287053	-7.407921779619761	-0.9069853842510682	-4.092078651362	-444.9600904132161	-78.43688212774838	-1.724003287136491	0.5780581713911652	0.5820325987441548	-0.3547004890880215	-1.784122704823343	0.1475805992431861	-0.5836337932092603	1.546169222105131	-2.131033361678752	-2.131033361678797	-0.3637009961930457	0.09177196451717826	-1.082579917293256	0.0407904643099232	-5.787113697837497e-08	-3.682254579120631e-06	-5.282939021097751e-07	-5.458971810925286e-07	-2.48938895742526e-07	-2.156895113638091e-06	-2.507265809139246e-07
0.53	-0.2613411703298554	0.01250015992134068	0.7323400134338804	1.163439707490701	-0.3542543343029324	0.02075523330842591	-0.4134149685405851	1.100094817612276	1.100094817611831	0.009581700088614765	-0.1745324163857957	0.3392645555995786	0.1875323463858552	-0.7934582920801114	-0.1627367766894027	-0.6275759120668022	2.590986582657796	0.03475137841520414	0.5571689768352338	-0.2492379101178253	2.12914483341664	2.129144833416707	0.3085533474255355	3.538742651419683e-05	0.5015503038000202	0.2785278478981886	-0.1233005430823396	0.01641404373339328	-0.005101885905179159	-0.2266114004723772	0.01188912950128245	0.02821091113088556	0.1308395900305468	-19.86949518840317	-7.028312933603347	-1.153349842463043	-3.944701703722106	-448.9182662213342	-78.31606791657804	-1.338454967177674	0.6682713587078184	0.592852774200169	-0.2642185425385071	-2.022957262986942	0.108685235145324	-0.7170208819674121	1.517069624865139	-2.316091580965514	-2.316091580969298	-0.3427334815768309	-0.03174315377232185	-1.13094891849396	-0.04289378437609748	-5.370899976069244e-08	-3.355893904515838e-06	-4.742810357849134e-07	-5.062534754564607e-07	-2.302536979117886e-07	-1.992524669895299e-06	-2.294357690940934e-07
0.54	-0.269241605829186	0.01090255950721078	0.7260524609357424	1.189245489696479	-0.3539009205361781	0.02629217500295004	-0.4158311174691901	1.121267890490044	1.121267890490649	0.01264958689833438	-0.1745319443883168	0.3442230457687561	0.1903157609167047	-0.7865167285540442	-0.1567671967635907	-0.6297879261432583	2.569824234474592	0.03591976425035034	0.5501656127327883	-0.2339972907014695	2.105186607413783	2.105186607413825	0.3050199496863449	4.318526794429978e-05	0.4900854598676331	0.27809431671083	-0.1283350861597618	0.01742392871084359	-0.005407453787301165	-0.2299848398681366	0.01066045393619692	0.02797684908762728	0.1346348298588106	-20.52746782421996	-6.654459748942549	-1.392277455158071	-3.809700267531901	-452.8475941083789	-78.22951476036296	-1.00423460378061	0.7123527066018441	0.6005412632232973	-0.1790738081051207	-2.199056484154455	0.1360323440511612	-0.6503007320809547	1.539671104562211	-2.470434383476484	-2.470434383476412	-0.3723820861214782	0.07101492088240942	-1.158560257641151	-0.02725933710228154	-6.003191964454238e-08	-3.221743129779738e-06	-3.340335831961933e-07	-4.896954850590325e-07	-2.320782194161826e-07	-1.924293170166067e-06	-2.379290235945497e-07
0.55	-0.2770695057727588	0.009365058716126518	0.7197472064291793	1.214829548697464	-0.3535361327316071	0.03175781980909387	-0.4180950366143285	1.142193004822803	1.142193004823957	0.01568166244447456	-0.1745316608688212	0.3490650715134641	0.1930930649500427	-0.7789653618731995	-0.1507222348574512	-0.6311115024090873	2.546650901855138	0.0370338750713203	0.5429012952575205	-0.2188041129493892	2.079557565911822	2.079557565911822	0.301407769275518	1.119414550463645e-05	0.478267780013609	0.2773171417036317	-0.1332595764150193	0.01733899617441179	-0.005758075277285615	-0.2335726816641069	0.009263259057410952	0.02835660040293877	0.1383125691478209	-21.18251886678302	-6.626383450934819	-1.486199232180552	-3.676935271834912	-456.8888358174576	-78.9513642330849	-0.7202097295133488	0.7911869425137095	0.6079865108880139	-0.08632523646529641	-2.426996363238199	0.09873703941590534	-0.7740913443248532	1.506504917104818	-2.650894505143233	-2.650894505149414	-0.3541797695950131	-0.04081821525188254	-1.20130596188308	-0.109820437945367	-7.732910228453257e-08	-2.903538494387719e-06	2.452793889101096e-08	-4.341373054664264e-07	-2.493259965876002e-07	-1.67930531920004e-06	-2.637558862712766e-07
0.5600000000000001	-0.2848189603907854	0.007888310115419418	0.713433251019829	1.240171769429775	-0.3531602765011669	0.03714890262267051	-0.4202075512206315	1.162853477646224	1.162853477647927	0.01867790743630404	-0.1745317996778401	0.3537873336371116	0.1958612224622254	-0.7708276634448352	-0.1446167586881583	-0.6315281067006582	2.521456580739792	0.03813344942412858	0.5352532142192454	-0.2037163829343541	2.052258305546374	2.052258305546334	0.2978538388234238	-4.128043472333313e-05	0.4661327356555809	0.2762650124797623	-0.1381840666702788	0.01725406363798641	-0.006108696767222761	-0.2371605234600747	0.007866064178626397	0.0287363517182595	0.1419903084368286	-21.83574041515968	-6.607909105081596	-1.567989291005824	-3.561583085458842	-460.9158190005526	-79.72045462005023	-0.4855463650666364	0.8296190561057903	0.6126441158539682	0.002320586746543831	-2.603254183332848	0.1331250504188257	-0.7270534446824179	1.518581557153165	-2.804478156173514	-2.804478156173498	-0.360732094374915	0.06691822932475174	-1.22203315844197	-0.0822501804365157	-1.077954002318906e-07	-2.364469226208608e-06	6.450663443763878e-07	-3.317788988396082e-07	-2.850816805594453e-07	-1.222209846749866e-06	-3.103830787595275e-07
0.5700000000000001	-0.2924841666629041	0.006472803103291338	0.7071196309690672	1.265252247581014	-0.3527736442728877	0.0424636356065556	-0.4221698531240498	1.18323296549833	1.183232965498155	0.0216370061173071	-0.1745318100119109	0.358386699773323	0.1986171847263916	-0.7621160580186849	-0.1384857685543606	-0.6310461014375475	2.494319725989208	0.03918649111516476	0.5276259431634023	-0.1887818883276321	2.023382482562476	2.023382482562436	0.2939775511336812	2.433761359816119e-05	0.4536930304197079	0.2748723209211126	-0.1431443263971827	0.01796816281344124	-0.006512139761865814	-0.2404641982235129	0.006306932064824309	0.02846224733743787	0.1456087758025304	-22.61320137900093	-6.221517920887842	-1.77947524147633	-3.246803477845105	-464.8602693775066	-79.66113513521101	-0.2996001036943303	0.9065335731606238	0.6131029637444761	0.09354973679239849	-2.816829760701355	0.0903919582319984	-0.7910187182945703	1.475199825716893	-2.967584364720825	-2.967584364720734	-0.3996453290640416	-0.0257275246111388	-1.262165453249303	-0.1758397631770021	-1.219309779468931e-07	-1.958385444971841e-06	1.001146348874e-06	-2.613356325338496e-07	-2.961740600463215e-07	-8.913890839723244e-07	-3.297494495482791e-07
